<svg id="clane-black-logo" xmlns="http://www.w3.org/2000/svg" width="170.853" height="21.598" viewBox="0 0 170.853 21.598">
  <path id="パス_1" data-name="パス 1" d="M0,10.983c0,6.109,4.345,10.756,10.068,10.756H21.254V18.555H10.068c-4,0-6.884-3.1-6.884-7.4,0-4.259,2.84-7.271,6.884-7.271H21.254V.7H10.068C4.13.7,0,4.916,0,10.983Z" transform="translate(0 -0.399)" fill="#3c3c3f"/>
  <path id="パス_2" data-name="パス 2" d="M65.584.7H62.4V21.739H80V18.555H65.584Z" transform="translate(-35.553 -0.399)" fill="#3c3c3f"/>
  <path id="パス_3" data-name="パス 3" d="M125.611,0a1.819,1.819,0,0,0-1.549,1.033L112.015,21.039l-.215.344h3.657l9.982-16.823,5.077,8.476h-7.787l-1.635,2.84h11.1L135.42,21.3l.043.129h3.829L127.16,1.033A1.763,1.763,0,0,0,125.611,0Z" transform="translate(-63.699)" fill="#3c3c3f"/>
  <path id="パス_4" data-name="パス 4" d="M204.971,16.349,189.741.731A2.086,2.086,0,0,0,188.278,0,1.705,1.705,0,0,0,186.6,1.936v19.4h3.1V5.206l15.145,15.618a2.255,2.255,0,0,0,1.592.774,1.677,1.677,0,0,0,1.592-1.893V.172h-3.1V16.349Z" transform="translate(-106.317 0)" fill="#3c3c3f"/>
  <rect id="長方形_5" data-name="長方形 5" width="12.348" height="3.012" transform="translate(113.283 9.121)" fill="#3c3c3f"/>
  <path id="パス_5" data-name="パス 5" d="M253.927,3.884h15.317V.7H250.7V21.739h18.587V18.555h-15.36Z" transform="translate(-142.838 -0.399)" fill="#3c3c3f"/>
  <rect id="長方形_6" data-name="長方形 6" width="1.377" height="10.283" transform="translate(141.894 10.842)" fill="#3c3c3f"/>
  <path id="パス_6" data-name="パス 6" d="M346.764,33.2l-7.787-7.96a.966.966,0,0,0-.645-.344.764.764,0,0,0-.731.86v9.594h1.334V27.094l7.744,8a1.054,1.054,0,0,0,.688.344c.387,0,.688-.3.688-.817v-9.68h-1.334V33.2Z" transform="translate(-192.35 -14.187)" fill="#3c3c3f"/>
  <path id="パス_7" data-name="パス 7" d="M365.7,30.177a4.962,4.962,0,0,0,4.9,5.249h5.464V34.049H370.6a3.568,3.568,0,0,1-3.528-3.829,3.519,3.519,0,0,1,3.528-3.743h5.464V25.1H370.6A4.791,4.791,0,0,0,365.7,30.177Z" transform="translate(-208.36 -14.301)" fill="#3c3c3f"/>
  <path id="パス_8" data-name="パス 8" d="M394.274,45.7a.774.774,0,1,0,.774.774A.722.722,0,0,0,394.274,45.7Z" transform="translate(-224.199 -26.038)" fill="#3c3c3f"/>
</svg>
