<svg xmlns="http://www.w3.org/2000/svg" width="18.9" height="14.175" viewBox="0 0 18.9 14.175">
  <path id="envelope-solid" d="M18.542,68.681a.222.222,0,0,1,.358.173V76.4a1.772,1.772,0,0,1-1.772,1.772H1.772A1.772,1.772,0,0,1,0,76.4V68.858a.221.221,0,0,1,.358-.173c.827.642,1.923,1.458,5.688,4.193.779.568,2.093,1.764,3.4,1.757,1.318.011,2.658-1.211,3.407-1.757C16.622,70.142,17.715,69.323,18.542,68.681ZM9.45,73.45c.856.015,2.089-1.078,2.709-1.528,4.9-3.555,5.271-3.865,6.4-4.751a.883.883,0,0,0,.34-.7v-.7A1.772,1.772,0,0,0,17.128,64H1.772A1.772,1.772,0,0,0,0,65.772v.7a.889.889,0,0,0,.34.7c1.13.882,1.5,1.2,6.4,4.751C7.361,72.372,8.594,73.465,9.45,73.45Z" transform="translate(0 -64)" fill="#fff"/>
</svg>
