<svg xmlns="http://www.w3.org/2000/svg" width="69" height="53.667" viewBox="0 0 69 53.667">
  <g id="icon5" transform="translate(0 -32)">
    <path id="パス_839" data-name="パス 839" d="M113.833,64,64,79.333V94.667l12.185,3.749a11.5,11.5,0,1,0,21.961,6.757L113.833,110ZM87,108.083a5.75,5.75,0,0,1-5.3-7.971l10.933,3.365A5.758,5.758,0,0,1,87,108.083Z" transform="translate(-56.333 -28.167)" fill="#617fd1" opacity="0.4"/>
    <path id="パス_840" data-name="パス 840" d="M67.083,32H63.25a1.917,1.917,0,0,0-1.917,1.917V83.75a1.917,1.917,0,0,0,1.917,1.917h3.833A1.917,1.917,0,0,0,69,83.75V33.917A1.917,1.917,0,0,0,67.083,32ZM3.833,47.333A3.833,3.833,0,0,0,0,51.167V66.5a3.833,3.833,0,0,0,7.667,0V51.167a3.833,3.833,0,0,0-3.833-3.833Z" fill="#617fd1"/>
  </g>
</svg>
