<svg xmlns="http://www.w3.org/2000/svg" width="64.307" height="56.268" viewBox="0 0 64.307 56.268">
  <g id="icon12" transform="translate(0 -32)">
    <path id="パス_847" data-name="パス 847" d="M32.153,57.12A11.053,11.053,0,1,0,43.206,68.173,11.053,11.053,0,0,0,32.153,57.12Zm0,7.034a4.03,4.03,0,0,0-4.019,4.019,2.01,2.01,0,0,1-4.019,0,8.046,8.046,0,0,1,8.038-8.038,2.01,2.01,0,0,1,0,4.019ZM60.288,32H32.153l-8.038,6.029H2.01A2.01,2.01,0,0,0,0,40.038v8.038H64.307V36.019A4.03,4.03,0,0,0,60.288,32Z" transform="translate(0)" fill="#617fd1" opacity="0.4"/>
    <path id="パス_848" data-name="パス 848" d="M22.105,34.01A2.01,2.01,0,0,0,20.1,32H8.038a2.01,2.01,0,0,0-2.01,2.01v4.019H22.105ZM0,48.077V82.24a6.029,6.029,0,0,0,6.029,6.029H58.278a6.029,6.029,0,0,0,6.029-6.029V48.077ZM32.153,83.244A15.072,15.072,0,1,1,47.225,68.173,15.072,15.072,0,0,1,32.153,83.244Z" fill="#617fd1"/>
  </g>
</svg>
