<svg xmlns="http://www.w3.org/2000/svg" width="76.833" height="57.625" viewBox="0 0 76.833 57.625">
  <g id="icon7" transform="translate(0 -64)">
    <path id="パス_837" data-name="パス 837" d="M76.833,114.422v4.8a2.4,2.4,0,0,1-2.4,2.4H4.8a4.8,4.8,0,0,1-4.8-4.8V66.4A2.4,2.4,0,0,1,2.4,64H7.2a2.4,2.4,0,0,1,2.4,2.4v45.619H74.432A2.4,2.4,0,0,1,76.833,114.422Z" fill="#617fd1" opacity="0.4"/>
    <path id="パス_838" data-name="パス 838" d="M153.627,98.4v17.715a3.606,3.606,0,0,1-6.153,2.551l-4.862-4.862-14.406,14.406a4.8,4.8,0,0,1-6.79,0L110.408,117.2,103.5,124.11a2.4,2.4,0,0,1-3.4,0l-3.394-3.394a2.4,2.4,0,0,1,0-3.4l10.308-10.308a4.8,4.8,0,0,1,6.79,0l11.01,11.01,11.01-11.012-4.858-4.858A3.6,3.6,0,0,1,133.518,96h17.708A2.4,2.4,0,0,1,153.627,98.4Z" transform="translate(-81.596 -27.198)" fill="#617fd1"/>
  </g>
</svg>
