<svg xmlns="http://www.w3.org/2000/svg" width="96.26" height="67.375" viewBox="0 0 96.26 67.375">
  <g id="icon3" transform="translate(0.199 -31.949)">
    <path id="パス_831" data-name="パス 831" d="M80.672,61.22a14.435,14.435,0,0,0-21.488-17.2,24.06,24.06,0,0,0-44.917,12c0,.406.015.812.03,1.218a21.654,21.654,0,0,0,7.188,42.09H76.823a19.248,19.248,0,0,0,3.85-38.1ZM58.988,70.453H49.154V87.295A2.406,2.406,0,0,1,46.748,89.7H39.53a2.406,2.406,0,0,1-2.406-2.406V70.453H27.289a2.406,2.406,0,0,1-1.7-4.105L41.44,50.5a2.415,2.415,0,0,1,3.4,0L60.687,66.348a2.4,2.4,0,0,1-1.7,4.105Z" transform="translate(0)" fill="#617fd1" opacity="0.4"/>
    <path id="パス_832" data-name="パス 832" d="M200.728,171.306h-9.834v16.842a2.406,2.406,0,0,1-2.406,2.406h-7.218a2.406,2.406,0,0,1-2.406-2.406V171.306h-9.834a2.406,2.406,0,0,1-1.7-4.105l15.849-15.849a2.415,2.415,0,0,1,3.4,0L202.427,167.2a2.4,2.4,0,0,1-1.7,4.105Z" transform="translate(-141.739 -100.853)" fill="#617fd1"/>
  </g>
</svg>
