<svg id="icon6" xmlns="http://www.w3.org/2000/svg" width="41.041" height="65.666" viewBox="0 0 41.041 65.666">
  <path id="パス_841" data-name="パス 841" d="M34.885,0H6.156A6.156,6.156,0,0,0,0,6.156V59.51a6.156,6.156,0,0,0,6.156,6.156H34.885a6.156,6.156,0,0,0,6.156-6.156V6.156A6.156,6.156,0,0,0,34.885,0ZM20.521,61.562a4.1,4.1,0,1,1,4.1-4.1A4.1,4.1,0,0,1,20.521,61.562ZM34.885,47.71a1.539,1.539,0,0,1-1.539,1.539H7.7A1.539,1.539,0,0,1,6.156,47.71V7.7A1.539,1.539,0,0,1,7.7,6.156H33.346A1.539,1.539,0,0,1,34.885,7.7Z" fill="#617fd1" opacity="0.4"/>
  <path id="パス_842" data-name="パス 842" d="M76.729,89.554a1.539,1.539,0,0,1-1.539,1.539H49.539A1.539,1.539,0,0,1,48,89.554V49.539A1.539,1.539,0,0,1,49.539,48H75.19a1.539,1.539,0,0,1,1.539,1.539Z" transform="translate(-41.844 -41.844)" fill="#617fd1"/>
</svg>
