<svg id="icon10" xmlns="http://www.w3.org/2000/svg" width="47.985" height="63.98" viewBox="0 0 47.985 63.98">
  <path id="パス_843" data-name="パス 843" d="M23.993,0A24.063,24.063,0,0,0,0,23.993c0,9.6,3.2,12.4,21.593,38.788a3,3,0,0,0,4.8,0C44.786,36.389,47.985,33.59,47.985,23.993A24.063,24.063,0,0,0,23.993,0ZM38.248,20.472,21.878,36.717a1.375,1.375,0,0,1-1.943-.007l-9.467-9.54a1.375,1.375,0,0,1,.007-1.944L13.725,22a1.375,1.375,0,0,1,1.944.007l5.267,5.31L33.082,15.268a1.375,1.375,0,0,1,1.943.007l3.227,3.249a1.375,1.375,0,0,1,0,1.948Z" fill="#617fd1" opacity="0.4"/>
  <path id="パス_844" data-name="パス 844" d="M108.756,124.594l-16.37,16.245a1.375,1.375,0,0,1-1.943-.007l-9.467-9.54a1.375,1.375,0,0,1,.007-1.944l3.249-3.227a1.375,1.375,0,0,1,1.944.007l5.267,5.31L103.59,119.39a1.375,1.375,0,0,1,1.943.007l3.227,3.249a1.375,1.375,0,0,1,0,1.948Z" transform="translate(-70.507 -104.122)" fill="#617fd1"/>
</svg>
