<svg xmlns="http://www.w3.org/2000/svg" width="77.625" height="60.375" viewBox="0 0 77.625 60.375">
  <g id="icon2" transform="translate(0 -32)">
    <path id="パス_833" data-name="パス 833" d="M0,85.906a6.469,6.469,0,0,0,6.469,6.469H71.156a6.469,6.469,0,0,0,6.469-6.469V62.188H0Zm25.875-9.164a1.617,1.617,0,0,1,1.617-1.617H45.82a1.617,1.617,0,0,1,1.617,1.617v5.391A1.617,1.617,0,0,1,45.82,83.75H27.492a1.617,1.617,0,0,1-1.617-1.617Zm-17.25,0a1.617,1.617,0,0,1,1.617-1.617h9.7a1.617,1.617,0,0,1,1.617,1.617v5.391a1.617,1.617,0,0,1-1.617,1.617h-9.7a1.617,1.617,0,0,1-1.617-1.617ZM71.156,32H6.469A6.469,6.469,0,0,0,0,38.469v6.469H77.625V38.469A6.469,6.469,0,0,0,71.156,32Z" fill="#617fd1" opacity="0.4"/>
    <path id="パス_834" data-name="パス 834" d="M77.625,145.25H0V128H77.625Z" transform="translate(0 -83.063)" fill="#617fd1"/>
  </g>
</svg>
