<svg xmlns="http://www.w3.org/2000/svg" width="62" height="62" viewBox="0 0 62 62">
  <g id="icon9" transform="translate(0 -32)">
    <path id="パス_849" data-name="パス 849" d="M55.357,32H6.643A6.643,6.643,0,0,0,0,38.643V87.357A6.643,6.643,0,0,0,6.643,94H55.357A6.643,6.643,0,0,0,62,87.357V38.643A6.643,6.643,0,0,0,55.357,32ZM13.286,47.5A2.214,2.214,0,0,1,15.5,45.286H33.214A2.214,2.214,0,0,1,35.429,47.5v4.429a2.214,2.214,0,0,1-2.214,2.214H15.5a2.214,2.214,0,0,1-2.214-2.214Zm13.286,31a2.214,2.214,0,0,1-2.214,2.214H15.5A2.214,2.214,0,0,1,13.286,78.5V74.071A2.214,2.214,0,0,1,15.5,71.857h8.857a2.214,2.214,0,0,1,2.214,2.214ZM48.714,65.214A2.214,2.214,0,0,1,46.5,67.429h-31a2.214,2.214,0,0,1-2.214-2.214V60.786A2.214,2.214,0,0,1,15.5,58.571h31a2.214,2.214,0,0,1,2.214,2.214Z" transform="translate(0)" fill="#617fd1" opacity="0.4"/>
    <path id="パス_850" data-name="パス 850" d="M98.214,136.857h17.714a2.214,2.214,0,0,0,2.214-2.214v-4.429A2.214,2.214,0,0,0,115.929,128H98.214A2.214,2.214,0,0,0,96,130.214v4.429A2.214,2.214,0,0,0,98.214,136.857Zm8.857,17.714H98.214A2.214,2.214,0,0,0,96,156.786v4.429a2.214,2.214,0,0,0,2.214,2.214h8.857a2.214,2.214,0,0,0,2.214-2.214v-4.429A2.214,2.214,0,0,0,107.071,154.571Zm22.143-13.286h-31A2.214,2.214,0,0,0,96,143.5v4.429a2.214,2.214,0,0,0,2.214,2.214h31a2.214,2.214,0,0,0,2.214-2.214V143.5A2.214,2.214,0,0,0,129.214,141.286Z" transform="translate(-82.714 -82.714)" fill="#617fd1"/>
  </g>
</svg>
