<svg xmlns="http://www.w3.org/2000/svg" width="69" height="60.375" viewBox="0 0 69 60.375">
  <g id="icon1" transform="translate(0 -32)">
    <path id="パス_829" data-name="パス 829" d="M10.242,104.625h5.391a1.617,1.617,0,0,0,1.617-1.617V97.617A1.617,1.617,0,0,0,15.633,96H10.242a1.617,1.617,0,0,0-1.617,1.617v5.391A1.617,1.617,0,0,0,10.242,104.625ZM0,113.25v28.031a6.469,6.469,0,0,0,6.469,6.469H62.531A6.469,6.469,0,0,0,69,141.281V113.25Z" transform="translate(0 -55.375)" fill="#617fd1" opacity="0.4"/>
    <path id="パス_830" data-name="パス 830" d="M62.531,32H6.469A6.469,6.469,0,0,0,0,38.469V57.875H69V38.469A6.469,6.469,0,0,0,62.531,32ZM17.25,47.633a1.617,1.617,0,0,1-1.617,1.617H10.242a1.617,1.617,0,0,1-1.617-1.617V42.242a1.617,1.617,0,0,1,1.617-1.617h5.391a1.617,1.617,0,0,1,1.617,1.617Zm43.125,0a1.617,1.617,0,0,1-1.617,1.617H25.336a1.617,1.617,0,0,1-1.617-1.617V42.242a1.617,1.617,0,0,1,1.617-1.617H58.758a1.617,1.617,0,0,1,1.617,1.617Z" fill="#617fd1"/>
  </g>
</svg>
