<svg id="icon4" xmlns="http://www.w3.org/2000/svg" width="89" height="71.2" viewBox="0 0 89 71.2">
  <path id="パス_835" data-name="パス 835" d="M37.825,57.85H13.35A4.45,4.45,0,0,1,8.9,53.4V30.577L5.888,33.236a2.3,2.3,0,0,1-1.3.484,2.256,2.256,0,0,1-1.478-.665L.494,30.1A2.281,2.281,0,0,1,0,28.786,2.246,2.246,0,0,1,.665,27.31L30.118,1.24A5.689,5.689,0,0,1,33.382,0a5.666,5.666,0,0,1,3.261,1.24L48.95,12.14V6.675A2.225,2.225,0,0,1,51.175,4.45h4.45A2.225,2.225,0,0,1,57.85,6.675v13.35l8.238,7.29a2.268,2.268,0,0,1,.662,1.471,2.3,2.3,0,0,1-.5,1.313l-.929,1.051H46.28a8.228,8.228,0,0,0-6.233,2.937V28.925A2.225,2.225,0,0,0,37.822,26.7h-8.9A2.225,2.225,0,0,0,26.7,28.925v8.9a2.225,2.225,0,0,0,2.225,2.225h8.9Z" fill="#617fd1" opacity="0.4"/>
  <path id="パス_836" data-name="パス 836" d="M307.916,282.7h-5.191V260.45a4.245,4.245,0,0,0-4-4.45H266.68a4.245,4.245,0,0,0-4,4.45V282.7h-5.191A1.484,1.484,0,0,0,256,284.184v1.482a5.955,5.955,0,0,0,5.924,5.934h41.552a5.955,5.955,0,0,0,5.924-5.934v-1.482A1.484,1.484,0,0,0,307.916,282.7Zm-11.866,0h-26.7V262.675h26.7Z" transform="translate(-220.4 -220.4)" fill="#617fd1"/>
</svg>
