<svg xmlns="http://www.w3.org/2000/svg" width="77" height="61.6" viewBox="0 0 77 61.6">
  <g id="icon11" transform="translate(0.002)">
    <path id="パス_845" data-name="パス 845" d="M217.75,5.966V44.084a5.88,5.88,0,0,1-5.775,5.966H182.112c-.108-.3-.224-.608-.349-.907a17.388,17.388,0,0,0-5.1-6.793H210.05V7.7H167.7v5.907a15.28,15.28,0,0,0-7.154-2.045h-.04c-.168,0-.337-.01-.507-.01V5.966A5.88,5.88,0,0,1,165.775,0h46.2A5.88,5.88,0,0,1,217.75,5.966Z" transform="translate(-140.752)" fill="#617fd1" opacity="0.4"/>
    <path id="パス_846" data-name="パス 846" d="M25.023,98.65a2.753,2.753,0,0,0-.849.131,15.871,15.871,0,0,1-4.926.831,15.881,15.881,0,0,1-4.927-.831,2.745,2.745,0,0,0-.842-.131A13.475,13.475,0,0,0,0,112.2a5.76,5.76,0,0,0,5.775,5.7h26.95a5.76,5.76,0,0,0,5.775-5.7A13.475,13.475,0,0,0,25.023,98.65ZM19.248,94.8A11.55,11.55,0,1,0,7.7,83.25,11.55,11.55,0,0,0,19.248,94.8Zm7.7-30.8v5.906a15.419,15.419,0,0,1,3.189,24.231,15.894,15.894,0,0,1-1.22,1.1,17.312,17.312,0,0,1,6.995,3.413H46.2v-7.7H61.6v7.7h7.7V64Z" transform="translate(0 -56.3)" fill="#617fd1"/>
  </g>
</svg>
