<svg xmlns="http://www.w3.org/2000/svg" width="65.667" height="65.667" viewBox="0 0 65.667 65.667">
  <path id="icon8" d="M39.884,57.24V67.662a.463.463,0,0,1-.469.469H37.743a.485.485,0,0,1-.381-.191l-4.778-6.449v6.186a.463.463,0,0,1-.469.469H30.444a.463.463,0,0,1-.469-.469V57.255a.463.463,0,0,1,.469-.469H32.1a.442.442,0,0,1,.381.205l4.778,6.449V57.255a.463.463,0,0,1,.469-.469H39.4a.464.464,0,0,1,.484.454Zm-12.019-.469H26.193a.463.463,0,0,0-.469.469V67.662a.463.463,0,0,0,.469.469h1.671a.463.463,0,0,0,.469-.469V57.24a.472.472,0,0,0-.469-.469Zm-4.031,8.736H19.275V57.24a.463.463,0,0,0-.469-.469H17.135a.463.463,0,0,0-.469.469V67.662a.431.431,0,0,0,.132.322.494.494,0,0,0,.322.132h6.7a.463.463,0,0,0,.469-.469V65.976a.47.47,0,0,0-.454-.469Zm24.845-8.736h-6.7a.472.472,0,0,0-.469.469V67.662a.472.472,0,0,0,.469.469h6.7a.463.463,0,0,0,.469-.469V65.991a.463.463,0,0,0-.469-.469H44.12V63.763h4.559a.463.463,0,0,0,.469-.469V61.608a.463.463,0,0,0-.469-.469H44.12V59.38h4.559a.463.463,0,0,0,.469-.469V57.24a.493.493,0,0,0-.469-.469Zm16.988-12.8V85.794A11.939,11.939,0,0,1,53.691,97.666H11.873A11.948,11.948,0,0,1,0,85.691V43.873A11.948,11.948,0,0,1,11.975,32H53.794A11.939,11.939,0,0,1,65.666,43.975Zm-9.029,17.97c0-10.7-10.729-19.407-23.907-19.407S8.824,51.245,8.824,61.946c0,9.586,8.5,17.619,19.993,19.143,2.8.6,2.477,1.627,1.847,5.394-.1.6-.484,2.36,2.067,1.29s13.764-8.106,18.791-13.881C54.981,70.081,56.637,66.226,56.637,61.946Z" transform="translate(0 -32)" fill="#617fd1"/>
</svg>
