<svg xmlns="http://www.w3.org/2000/svg" width="30.9" height="23.175" viewBox="0 0 30.9 23.175">
  <path id="envelope-solid" d="M30.315,71.653a.363.363,0,0,1,.585.284V84.278a2.9,2.9,0,0,1-2.9,2.9H2.9a2.9,2.9,0,0,1-2.9-2.9V71.942a.361.361,0,0,1,.585-.284c1.352,1.05,3.144,2.384,9.3,6.856,1.273.929,3.422,2.885,5.564,2.873,2.155.018,4.345-1.979,5.57-2.873C27.176,74.042,28.963,72.7,30.315,71.653ZM15.45,79.45c1.4.024,3.416-1.762,4.43-2.5,8.009-5.812,8.618-6.319,10.465-7.767a1.444,1.444,0,0,0,.555-1.141V66.9A2.9,2.9,0,0,0,28,64H2.9A2.9,2.9,0,0,0,0,66.9v1.147a1.453,1.453,0,0,0,.555,1.141C2.4,70.627,3.012,71.14,11.02,76.951,12.034,77.688,14.05,79.474,15.45,79.45Z" transform="translate(0 -64)" fill="#ffb157"/>
</svg>
