<svg xmlns="http://www.w3.org/2000/svg" width="28.418" height="28.418" viewBox="0 0 28.418 28.418">
  <path id="phone-alt-solid" d="M27.608,20.088l-6.217-2.664a1.332,1.332,0,0,0-1.554.383L17.084,21.17a20.574,20.574,0,0,1-9.835-9.835l3.364-2.753A1.329,1.329,0,0,0,11,7.028L8.331.811A1.341,1.341,0,0,0,6.8.04L1.032,1.372A1.332,1.332,0,0,0,0,2.67,25.752,25.752,0,0,0,25.755,28.425a1.332,1.332,0,0,0,1.3-1.032l1.332-5.773A1.348,1.348,0,0,0,27.608,20.088Z" transform="translate(0 -0.006)" fill="#ffb157"/>
</svg>
